# xmcd CD database file generated by OrangeCD 5.2
#
# Track frame offsets:
#	150
#	12852
#	27670
#	43750
#	60985
#	76170
#	91327
#	107297
#	123080
#	136495
#	156592
#	173042
#	185262
#
# Disc length: 2627 seconds
#
# Revision: 7
# Processed by: cddbd v1.5.1PL0 Copyright (c) Steve Scherf et al.
# Submitted via: OrangeCD 5.2
#
DISCID=9b0a410d
DTITLE=Trick Pony - Trick Pony
DYEAR=2001
DGENRE=Country
TTITLE0=Pour Me
TTITLE1=Party Of One
TTITLE2=Trick Pony with Johnny Cash and Waylon Jennings - Big River
TTITLE3=Every Other Memory
TTITLE4=More Like Me
TTITLE5=Just What I Do
TTITLE6=Stay In This Moment
TTITLE7=On A Night Like This
TTITLE8=One In A Row
TTITLE9=Now Would Be The Time
TTITLE10=Can't Say That On The Radio
TTITLE11=Spent
TTITLE12=Not Hidden Track
EXTD=
EXTT0=
EXTT1=
EXTT2=
EXTT3=
EXTT4=
EXTT5=
EXTT6=
EXTT7=
EXTT8=
EXTT9=
EXTT10=
EXTT11=
EXTT12=
PLAYORDER=
